<?xml version="1.0" encoding="utf-8"?>
<!-- Generator: Adobe Illustrator 16.0.0, SVG Export Plug-In . SVG Version: 6.00 Build 0)  -->
<!DOCTYPE svg PUBLIC "-//W3C//DTD SVG 1.1//EN" "http://www.w3.org/Graphics/SVG/1.1/DTD/svg11.dtd">
<svg version="1.1" id="Layer_1" xmlns="http://www.w3.org/2000/svg" xmlns:xlink="http://www.w3.org/1999/xlink" x="0px" y="0px"
	 width="36px" height="360px" viewBox="0 0 36 360" enable-background="new 0 0 36 360" xml:space="preserve">
<path fill="#383838" d="M33.341,108H2.66C1.191,108,0,109.154,0,110.579v30.84C0,142.844,1.191,144,2.66,144h30.682
	c1.468,0,2.658-1.156,2.658-2.58v-30.841C35.998,109.155,34.811,108,33.341,108z M35.422,126.836c-2.24-0.365-4.953-0.922-7.736-1
	c-1.154,2.269-3.469,3.385-6.658,3.62c0.342,0.748,0.996,1.028,1.158,2.233c0.238,1.794-0.377,4.424,0.232,5.62
	c0.289,0.571,0.762,0.589,1.078,1.08c-0.781,0.927-2.719-0.105-2.938-1.08c-0.381-1.668,0.572-4.26-0.465-5.393
	c0.07,1.823-0.432,4.383,0.076,6.012c0.201,0.641,0.779,0.885,0.613,1.461c-3.634,0.37-2.111-4.705-2.708-7.704
	c-0.546,0.045-0.308,0.823-0.308,1.158c-0.016,2.926,0.599,6.938-2.555,6.546c-0.092-0.612,0.424-0.821,0.621-1.385
	c0.575-1.646-0.111-4.099,0.154-6.088c-1.203,0.91,0.127,4.076-0.618,5.703c-0.431,0.938-1.815,1.342-2.865,0.924
	c0.136-0.693,0.853-0.584,1.16-1.232c0.426-0.905,0.005-2.208,0.156-3.54c-2.229,0.439-3.957-0.064-4.802-1.466
	c-0.38-0.629-0.472-1.369-0.928-1.928c-0.456-0.556-1.183-0.631-1.393-1.387c2.758-0.661,2.863,2.841,5.342,2.925
	c0.761,0.027,1.155-0.214,1.857-0.381c0.198-0.885,0.616-1.544,1.239-2.003c-3.083-0.425-5.628-1.383-6.812-3.696
	c-2.804,0.137-5.368,0.513-7.744,1.077c2.156-0.784,4.815-1.063,7.666-1.156c-0.168-1.01-1.642-0.732-2.557-0.693
	c-1.698,0.076-3.839,0.286-5.188,0.54c1.959-0.699,4.703-0.611,7.355-0.616c-0.811-2.543-0.53-6.584,1.242-8.087
	c-0.502-1.265-0.347-3.33,0.307-4.313c1.976,0.087,3.172,0.95,4.414,1.771c1.54-0.437,3.158-0.653,5.266-0.54
	c0.887,0.048,1.812,0.448,2.479,0.385c0.656-0.061,1.377-0.795,2.012-1.077c0.832-0.365,1.533-0.506,2.479-0.54
	c0.451,1.033,0.75,2.75,0.309,4.004c1.799,1.536,2.42,5.27,1.551,8.318c2.566,0.197,5.613-0.093,7.588,0.694
	c-1.844-0.238-4.359-0.702-6.736-0.542c-0.453,0.032-1.115-0.018-1.08,0.618C30.432,125.897,33.17,126.131,35.422,126.836z"/>
<path fill="#383838" d="M33.341,54H2.66C1.191,54,0,55.154,0,56.579v30.84C0,88.844,1.19,90,2.66,90h30.681
	C34.81,90,36,88.844,36,87.42V56.579C36,55.154,34.812,54,33.341,54z M30.095,78.858V65.246l-6.959,6.807L30.095,78.858z M32,63.564
	v16.975v0.211H4v-0.211V63.564V63.25h28V63.564z M17.999,77.075l-3.617-3.54l-5.675,5.556H27.29l-5.674-5.556L17.999,77.075z
	 M15.898,72.053l2.1,2.048l2.098-2.048l1.519-1.49l5.673-5.551H8.708l5.675,5.551L15.898,72.053z M19.18,70.442v0.043h-0.031
	C19.158,70.473,19.171,70.457,19.18,70.442z M5.902,65.246v13.613l6.964-6.806L5.902,65.246z"/>
<path fill="#383838" d="M33.342,162H2.66C1.191,162,0,163.153,0,164.58v30.84c0,1.426,1.191,2.58,2.66,2.58h30.682
	c1.469,0,2.658-1.154,2.658-2.58v-30.84C36,163.155,34.811,162,33.342,162z M10.359,193.297H4.356v-17.94h6.003V193.297z
	 M7.358,172.907H7.317c-2.013,0-3.317-1.381-3.317-3.103c0-1.758,1.344-3.1,3.396-3.1c2.055,0,3.317,1.339,3.356,3.1
	C10.752,171.526,9.45,172.907,7.358,172.907z M32,193.297h-5.998v-9.595c0-2.415-0.874-4.062-3.044-4.062
	c-1.659,0-2.643,1.113-3.076,2.182c-0.161,0.386-0.201,0.92-0.201,1.454v10.021H13.68c0,0,0.08-16.258,0-17.94h6.001v2.541
	c0.798-1.221,2.222-2.965,5.405-2.965c3.953,0,6.914,2.562,6.914,8.077V193.297L32,193.297z M19.641,177.957
	c0.013-0.019,0.025-0.038,0.04-0.057v0.057H19.641z"/>
<path fill="#383838" d="M33.344,270H2.66C1.191,270,0,271.154,0,272.578v30.841C0,304.845,1.19,306,2.66,306h30.684
	c1.469,0,2.656-1.155,2.656-2.581v-30.841C36.002,271.154,34.812,270,33.344,270z M28.637,288.516
	c-2.285,9.253-17.607,13.178-24.658,3.572c2.7,2.575,7.402,2.803,10.385-0.277c-1.748,0.256-3.021-1.459-0.873-2.387
	c-1.932,0.212-3.006-0.817-3.446-1.689c0.452-0.475,0.952-0.693,1.919-0.758c-2.115-0.5-2.896-1.533-3.135-2.787
	c0.588-0.142,1.322-0.262,1.723-0.207c-1.854-0.968-2.496-2.425-2.396-3.52c3.312,1.229,5.42,2.216,7.183,3.162
	c0.629,0.335,1.33,0.937,2.121,1.703c1.006-2.66,2.252-5.406,4.381-6.765c-0.035,0.309-0.199,0.596-0.42,0.829
	c0.605-0.548,1.391-0.927,2.189-1.036c-0.09,0.6-0.955,0.937-1.475,1.134c0.396-0.124,2.494-1.06,2.719-0.526
	c0.271,0.604-1.445,0.885-1.736,0.991c-0.219,0.072-0.436,0.153-0.652,0.238c2.658-0.265,5.195,1.929,5.938,4.646
	c0.053,0.198,0.105,0.415,0.152,0.643c0.973,0.361,2.732-0.02,3.301-0.366c-0.412,0.969-1.477,1.684-3.049,1.813
	c0.758,0.315,2.186,0.489,3.172,0.321C31.354,287.923,30.348,288.53,28.637,288.516z"/>
<g>
	<g>
		<g>
			<defs>
				<path id="SVGID_1_" d="M33.341,0H2.66C1.19,0,0,1.154,0,2.579v30.84C0,34.844,1.19,36,2.661,36h30.682
					C34.812,36,36,34.844,36,33.42V2.579C36,1.154,34.81,0,33.341,0z M19.324,16.236c0.01-0.015,0.021-0.033,0.035-0.051v0.051
					H19.324z"/>
			</defs>
			<clipPath id="SVGID_2_">
				<use xlink:href="#SVGID_1_"  overflow="visible"/>
			</clipPath>
			<path clip-path="url(#SVGID_2_)" fill="#383838" d="M35.225,0H0.75C0.335,0,0,0.337,0,0.751v34.47
				c0,0.418,0.336,0.752,0.751,0.752h34.473c0.414,0,0.752-0.334,0.752-0.752V0.751C35.977,0.337,35.641,0,35.225,0z M17.988,34.471
				V17.987H1.504V1.505h16.484v16.481H34.47v16.484H17.988z"/>
		</g>
	</g>
</g>
<path fill="#383838" d="M13.683,326.347c-3.13-3.129-8.205-3.129-11.335,0c-3.129,3.131-3.129,8.208,0,11.337
	c2.699,2.701,6.844,3.065,9.942,1.107L16.5,343l2.5-2.499l-4.211-4.21C16.749,333.193,16.382,329.048,13.683,326.347z
	 M11.925,335.926c-2.161,2.156-5.663,2.156-7.819,0c-2.16-2.16-2.16-5.663,0-7.817c2.156-2.159,5.658-2.159,7.819,0
	C14.082,330.263,14.082,333.765,11.925,335.926z"/>
<path fill="#383838" d="M14.385,227.476l9.521,5.615l-1.2,2.033l-9.521-5.616L14.385,227.476z M11.836,232.923l10.677,2.868
	l-0.612,2.281l-10.677-2.871L11.836,232.923z M10.778,237.858l11.01,1.015l-0.218,2.352l-11.009-1.014L10.778,237.858z
	 M21.52,241.901l0.002,2.361l-11.055,0.004l-0.002-2.36L21.52,241.901z M25.277,248H7.008v-11.504h1.892v9.651H23.4v-9.651h1.878
	L25.277,248L25.277,248z M24.29,232.769l-6.229-9.135l1.951-1.33l6.229,9.135L24.29,232.769z M26.664,231.294l-1.89-10.891L27.1,220
	l1.893,10.891L26.664,231.294z M33.344,216H2.662C1.192,216,0,217.154,0,218.579v30.84C0,250.844,1.191,252,2.662,252h30.681
	c1.47,0,2.657-1.156,2.657-2.581v-30.84C36.001,217.154,34.812,216,33.344,216z"/>
</svg>
