<svg xmlns="http://www.w3.org/2000/svg" xmlns:xlink="http://www.w3.org/1999/xlink" width="36" height="360" viewBox="0 0 36 360"><path fill="#383838" d="M33.341 108h-30.681c-1.469 0-2.66 1.154-2.66 2.579v30.84c0 1.425 1.191 2.581 2.66 2.581h30.682c1.468 0 2.658-1.156 2.658-2.58v-30.841c-.002-1.424-1.189-2.579-2.659-2.579zm2.081 18.836c-2.24-.365-4.953-.922-7.736-1-1.154 2.269-3.469 3.385-6.658 3.62.342.748.996 1.028 1.158 2.233.238 1.794-.377 4.424.232 5.62.289.571.762.589 1.078 1.08-.781.927-2.719-.105-2.938-1.08-.381-1.668.572-4.26-.465-5.393.07 1.823-.432 4.383.076 6.012.201.641.779.885.613 1.461-3.634.37-2.111-4.705-2.708-7.704-.546.045-.308.823-.308 1.158-.016 2.926.599 6.938-2.555 6.546-.092-.612.424-.821.621-1.385.575-1.646-.111-4.099.154-6.088-1.203.91.127 4.076-.618 5.703-.431.938-1.815 1.342-2.865.924.136-.693.853-.584 1.16-1.232.426-.905.005-2.208.156-3.54-2.229.439-3.957-.064-4.802-1.466-.38-.629-.472-1.369-.928-1.928-.456-.556-1.183-.631-1.393-1.387 2.758-.661 2.863 2.841 5.342 2.925.761.027 1.155-.214 1.857-.381.198-.885.616-1.544 1.239-2.003-3.083-.425-5.628-1.383-6.812-3.696-2.804.137-5.368.513-7.744 1.077 2.156-.784 4.815-1.063 7.666-1.156-.168-1.01-1.642-.732-2.557-.693-1.698.076-3.839.286-5.188.54 1.959-.699 4.703-.611 7.355-.616-.811-2.543-.53-6.584 1.242-8.087-.502-1.265-.347-3.33.307-4.313 1.976.087 3.172.95 4.414 1.771 1.54-.437 3.158-.653 5.266-.54.887.048 1.812.448 2.479.385.656-.061 1.377-.795 2.012-1.077.832-.365 1.533-.506 2.479-.54.451 1.033.75 2.75.309 4.004 1.799 1.536 2.42 5.27 1.551 8.318 2.566.197 5.613-.093 7.588.694-1.844-.238-4.359-.702-6.736-.542-.453.032-1.115-.018-1.08.618 2.747.219 5.485.453 7.737 1.158zM33.341 54h-30.681c-1.469 0-2.66 1.154-2.66 2.579v30.84c0 1.425 1.19 2.581 2.66 2.581h30.681c1.469 0 2.659-1.156 2.659-2.58v-30.841c0-1.425-1.188-2.579-2.659-2.579zm-3.246 24.858v-13.612l-6.959 6.807 6.959 6.805zm1.905-15.294v17.186h-28v-17.5h28v.314zm-14.001 13.511l-3.617-3.54-5.675 5.556h18.583l-5.674-5.556-3.617 3.54zm-2.101-5.022l2.1 2.048 2.098-2.048 1.519-1.49 5.673-5.551h-18.58l5.675 5.551 1.515 1.49zm3.282-1.611v.043h-.031l.031-.043zm-13.278-5.196v13.613l6.964-6.806-6.964-6.807zM33.342 162h-30.682c-1.469 0-2.66 1.153-2.66 2.58v30.84c0 1.426 1.191 2.58 2.66 2.58h30.682c1.469 0 2.658-1.154 2.658-2.58v-30.84c0-1.425-1.189-2.58-2.658-2.58zm-22.983 31.297h-6.003v-17.94h6.003v17.94zm-3.001-20.39h-.041c-2.013 0-3.317-1.381-3.317-3.103 0-1.758 1.344-3.1 3.396-3.1 2.055 0 3.317 1.339 3.356 3.1 0 1.722-1.302 3.103-3.394 3.103zm24.642 20.39h-5.998v-9.595c0-2.415-.874-4.062-3.044-4.062-1.659 0-2.643 1.113-3.076 2.182-.161.386-.201.92-.201 1.454v10.021h-6.001s.08-16.258 0-17.94h6.001v2.541c.798-1.221 2.222-2.965 5.405-2.965 3.953 0 6.914 2.562 6.914 8.077v10.287zm-12.359-15.34l.04-.057v.057h-.04zM33.344 270h-30.684c-1.469 0-2.66 1.154-2.66 2.578v30.841c0 1.426 1.19 2.581 2.66 2.581h30.684c1.469 0 2.656-1.155 2.656-2.581v-30.841c.002-1.424-1.188-2.578-2.656-2.578zm-4.707 18.516c-2.285 9.253-17.607 13.178-24.658 3.572 2.7 2.575 7.402 2.803 10.385-.277-1.748.256-3.021-1.459-.873-2.387-1.932.212-3.006-.817-3.446-1.689.452-.475.952-.693 1.919-.758-2.115-.5-2.896-1.533-3.135-2.787.588-.142 1.322-.262 1.723-.207-1.854-.968-2.496-2.425-2.396-3.52 3.312 1.229 5.42 2.216 7.183 3.162.629.335 1.33.937 2.121 1.703 1.006-2.66 2.252-5.406 4.381-6.765-.035.309-.199.596-.42.829.605-.548 1.391-.927 2.189-1.036-.09.6-.955.937-1.475 1.134.396-.124 2.494-1.06 2.719-.526.271.604-1.445.885-1.736.991-.219.072-.436.153-.652.238 2.658-.265 5.195 1.929 5.938 4.646.053.198.105.415.152.643.973.361 2.732-.02 3.301-.366-.412.969-1.477 1.684-3.049 1.813.758.315 2.186.489 3.172.321-.626.673-1.632 1.28-3.343 1.266z"/><defs><path id="a" d="M33.341 0h-30.681c-1.47 0-2.66 1.154-2.66 2.579v30.84c0 1.425 1.19 2.581 2.661 2.581h30.682c1.469 0 2.657-1.156 2.657-2.58v-30.841c0-1.425-1.19-2.579-2.659-2.579zm-14.017 16.236l.035-.051v.051h-.035z"/></defs><clipPath id="b"><use xlink:href="#a" overflow="visible"/></clipPath><path clip-path="url(#b)" fill="#383838" d="M35.225 0h-34.475c-.415 0-.75.337-.75.751v34.47c0 .418.336.752.751.752h34.473c.414 0 .752-.334.752-.752v-34.47c.001-.414-.335-.751-.751-.751zm-17.237 34.471v-16.484h-16.484v-16.482h16.484v16.481h16.482v16.484h-16.482z"/><path fill="#383838" d="M13.683 326.347c-3.13-3.129-8.205-3.129-11.335 0-3.129 3.131-3.129 8.208 0 11.337 2.699 2.701 6.844 3.065 9.942 1.107l4.21 4.209 2.5-2.499-4.211-4.21c1.96-3.098 1.593-7.243-1.106-9.944zm-1.758 9.579c-2.161 2.156-5.663 2.156-7.819 0-2.16-2.16-2.16-5.663 0-7.817 2.156-2.159 5.658-2.159 7.819 0 2.157 2.154 2.157 5.656 0 7.817zM14.385 227.476l9.521 5.615-1.2 2.033-9.521-5.616 1.2-2.032zm-2.549 5.447l10.677 2.868-.612 2.281-10.677-2.871.612-2.278zm-1.058 4.935l11.01 1.015-.218 2.352-11.009-1.014.217-2.353zm10.742 4.043l.002 2.361-11.055.004-.002-2.36 11.055-.005zm3.757 6.099h-18.269v-11.504h1.892v9.651h14.5v-9.651h1.878l-.001 11.504zm-.987-15.231l-6.229-9.135 1.951-1.33 6.229 9.135-1.951 1.33zm2.374-1.475l-1.89-10.891 2.326-.403 1.893 10.891-2.329.403zm6.68-15.294h-30.682c-1.47 0-2.662 1.154-2.662 2.579v30.84c0 1.425 1.191 2.581 2.662 2.581h30.681c1.47 0 2.657-1.156 2.657-2.581v-30.84c.001-1.425-1.188-2.579-2.656-2.579z"/></svg>