<!DOCTYPE svg PUBLIC "-//W3C//DTD SVG 1.1//EN" "http://www.w3.org/Graphics/SVG/1.1/DTD/svg11.dtd" [
	<!ENTITY ns_flows "http://ns.adobe.com/Flows/1.0/">
]><svg xmlns="http://www.w3.org/2000/svg" width="48" height="48" viewBox="0 -0.012 48 48" overflow="visible" enable-background="new 0 -0.012 48 48"><path fill="#204E26" d="M17.72 9.514c-3.882-3.885-8.738-5.542-12.225-2.059-2.738 2.744-2.283 7.313 1.605 11.199 4.053 4.056 9.139 4.227 11.883 1.487 3.079-3.086 2.224-7.142-1.263-10.627zM43.952 25.908c-3.479-3.484-7.375-2.57-11.487 1.545l-1.942 1.94c-1.828 1.83-3.999 4.232-4.289 5.546-.514 2.229-.112 5.37 2.06 7.543 3.085 3.085 8.112 3.196 13.312-2.004 5.083-5.082 5.602-11.313 2.346-14.57zM17.266 1.168c1.086.856 2.06 1.83 3.034 2.8 3.934 3.94 6.737 11.429-.514 18.686-1.026 1.027-1.947 1.714-2.69 2.338-.284 1.089-1.034 4.004.625 5.662 1.316 1.313 3.717 1.082 6.409-1.604 1.934-1.941 4.104-4.455 6.618-6.969 3.205-3.201 8.573-7.424 14.292-1.71 1.53 1.531 2.545 3.375 3.102 5.393v-22.315c-.004-1.904-1.591-3.449-3.557-3.449h-26.152l-1.167 1.168zM41.604 45.393c-1.129 1.129-2.234 2.022-3.312 2.749h6.293c1.963 0 3.555-1.546 3.555-3.45v-10.754c-.959 4.065-3.227 8.15-6.536 11.455zM3.725 5.913c2.171-2.172 4.744-3.603 6.625-4.343 1.744-.68 2.556-1.041 3.272-1.57h-10.065c-1.964 0-3.557 1.543-3.557 3.449v9.001c.585-2.371 1.839-4.651 3.725-6.537zM24.01 45.509c-.059-2.001.053-5.087.059-7.713-.006-1.029-.059-2.003-.914-1.831-2.803 1.654-6.685 1.658-8.685-.34-.29-.286-.29-.744-.119-1.829.342-1.602.454-3.658.401-5.659-.059-.628-.23-1.371-.513-1.657-2.974.914-7.547 1.029-11.205-2.628-1.53-1.532-2.532-3.357-3.034-5.298v26.137c0 1.904 1.593 3.45 3.557 3.45h21.844c-.848-.88-1.34-1.806-1.391-2.632z"/></svg>