<?xml version="1.0" encoding="utf-8"?>
<!-- Generator: Adobe Illustrator 15.0.2, SVG Export Plug-In  -->
<!DOCTYPE svg PUBLIC "-//W3C//DTD SVG 1.1//EN" "http://www.w3.org/Graphics/SVG/1.1/DTD/svg11.dtd" [
	<!ENTITY ns_flows "http://ns.adobe.com/Flows/1.0/">
]>
<svg version="1.1"
	 xmlns="http://www.w3.org/2000/svg" xmlns:xlink="http://www.w3.org/1999/xlink" xmlns:a="http://ns.adobe.com/AdobeSVGViewerExtensions/3.0/"
	 x="0px" y="0px" width="48px" height="48px" viewBox="0 -0.012 48 48" overflow="visible" enable-background="new 0 -0.012 48 48"
	 xml:space="preserve">
<defs>
</defs>
<path fill="#204E26" d="M17.72,9.514C13.838,5.629,8.982,3.972,5.495,7.455c-2.738,2.744-2.283,7.313,1.605,11.199
	c4.053,4.056,9.139,4.227,11.883,1.487C22.062,17.055,21.207,12.999,17.72,9.514z"/>
<path fill="#204E26" d="M43.952,25.908c-3.479-3.484-7.375-2.57-11.487,1.545l-1.942,1.94c-1.828,1.83-3.999,4.232-4.289,5.546
	c-0.514,2.229-0.112,5.37,2.06,7.543c3.085,3.085,8.112,3.196,13.312-2.004C46.689,35.396,47.208,29.165,43.952,25.908z"/>
<path fill="#204E26" d="M17.266,1.168c1.086,0.856,2.06,1.83,3.034,2.8c3.934,3.94,6.737,11.429-0.514,18.686
	c-1.026,1.027-1.947,1.714-2.69,2.338c-0.284,1.089-1.034,4.004,0.625,5.662c1.316,1.313,3.717,1.082,6.409-1.604
	c1.934-1.941,4.104-4.455,6.618-6.969c3.205-3.201,8.573-7.424,14.292-1.71c1.53,1.531,2.545,3.375,3.102,5.393V3.449
	C48.138,1.545,46.551,0,44.585,0H18.433L17.266,1.168z"/>
<path fill="#204E26" d="M41.604,45.393c-1.129,1.129-2.234,2.022-3.312,2.749h6.293c1.963,0,3.555-1.546,3.555-3.45V33.938
	C47.181,38.003,44.913,42.088,41.604,45.393z"/>
<path fill="#204E26" d="M3.725,5.913c2.171-2.172,4.744-3.603,6.625-4.343C12.094,0.89,12.906,0.529,13.622,0H3.557
	C1.593,0,0,1.543,0,3.449v9.001C0.585,10.079,1.839,7.799,3.725,5.913z"/>
<path fill="#204E26" d="M24.01,45.509c-0.059-2.001,0.053-5.087,0.059-7.713c-0.006-1.029-0.059-2.003-0.914-1.831
	c-2.803,1.654-6.685,1.658-8.685-0.34c-0.29-0.286-0.29-0.744-0.119-1.829c0.342-1.602,0.454-3.658,0.401-5.659
	c-0.059-0.628-0.23-1.371-0.513-1.657c-2.974,0.914-7.547,1.029-11.205-2.628C1.504,22.32,0.502,20.495,0,18.554v26.137
	c0,1.904,1.593,3.45,3.557,3.45h21.844C24.553,47.261,24.061,46.335,24.01,45.509z"/>
</svg>
